<?xml version="1.0" encoding="utf-8"?>
<!-- Generator: Adobe Illustrator 26.0.3, SVG Export Plug-In . SVG Version: 6.00 Build 0)  -->
<svg version="1.0" id="Layer_1" xmlns="http://www.w3.org/2000/svg" xmlns:xlink="http://www.w3.org/1999/xlink" x="0px" y="0px"
	 viewBox="0 0 856 684" style="enable-background:new 0 0 856 684;" xml:space="preserve">
<style type="text/css">
	.st0{clip-path:url(#SVGID_00000029744819295717223140000012701927429375876224_);}
	.st1{fill:#EB1923;}
	.st2{fill:#FDD700;}
	.st3{fill:#7FBD3F;}
	.st4{fill:#FFFFFF;}
</style>
<g>
	<defs>
		<rect id="SVGID_1_" x="87" y="218.3" width="682" height="247.4"/>
	</defs>
	<clipPath id="SVGID_00000141454008153621478700000004522272093078059192_">
		<use xlink:href="#SVGID_1_"  style="overflow:visible;"/>
	</clipPath>
	<g style="clip-path:url(#SVGID_00000141454008153621478700000004522272093078059192_);">
		<path class="st1" d="M751.2,260.8c-0.4-4.1-3.4-7.5-7.5-8.3c-29.1-6.5-149.7-30.8-309.1-30.8h-13.2
			c-159.4,0-280.1,24.3-309.2,30.8c-4,0.9-7,4.2-7.5,8.3L90.4,388.3c0,0.2,0.1,0.4,0.4,0.5c180.7-9.1,286.6,32.9,323,55.4
			c8.8,5.4,19.9,5.4,28.6,0c36.2-22.5,142.1-64.6,322.9-55.4c0.3,0,0.4-0.2,0.4-0.5L751.2,260.8"/>
		<path class="st2" d="M90.4,388.3l0.3-2.2c124.5-12.4,304.3-5.7,398.4,47.7c-15.7,6.5-39.5,19.9-46.7,24.3
			c-8.7,5.5-19.9,5.5-28.6,0c-9.7-5.9-19.7-11.4-29.9-16.2c-51.1-24.8-147.1-57.3-290.6-50.4c-1.5,0.1-2.8-1-2.9-2.5
			C90.3,388.7,90.3,388.5,90.4,388.3"/>
		<path class="st3" d="M765.6,388.3l-0.3-2.2c-124.4-12.4-304.5-5.6-398.6,47.8c15.6,6.4,39.4,19.6,46.9,24.1
			c8.7,5.7,19.9,5.7,28.6,0c7.2-4.4,17.1-9.8,29.9-16.3c50.7-25.8,147.1-57.3,290.5-50.4c1.5,0.1,2.8-1,2.9-2.5
			C765.7,388.7,765.6,388.5,765.6,388.3"/>
		<path class="st4" d="M176.6,316.9v16.7h17.2c5.3,0,8.4-3.1,8.8-8c0.2-2.8-1-5.5-3.2-7.2c-1.8-1.3-3.9-1.5-6.3-1.5L176.6,316.9
			 M176.6,287.5v16.6h14.2c5.3,0,8.7-2.9,8.8-7.9c0.1-5.4-3.4-8.8-8.8-8.8H176.6z M207.5,309.3c6.6,2.9,10.4,8.8,10.4,16.4
			c0,12.9-8.5,21.7-23.1,21.7h-33.6V274H192c13.2,0,22.8,8,22.8,21.8C214.8,301.2,212,306.3,207.5,309.3"/>
		<path class="st4" d="M258.6,310.2c6.5,0,10.8-5.1,10.7-11.5c0-6.2-4-11.2-10.7-11.2h-15.5v22.6H258.6 M287.8,345.1v2.2h-9.6
			c-4.4,0.1-8.5-2.3-10.8-6.1L256.3,323h-12.9v24.3h-15.5v-73.5c10.3,0,20.6-0.1,31,0c16.5,0,25.5,12.2,25.5,25.2
			c0,9.4-4.6,17.5-13,21.7L287.8,345.1z"/>
		<rect x="297.6" y="274" class="st4" width="15.5" height="73.4"/>
		<rect x="597" y="274" class="st4" width="15.6" height="73.4"/>
		<path class="st4" d="M323,287.5V274h59.9l-4.2,9.1c-1.2,2.7-3.9,4.5-6.9,4.4h-13.5v59.9h-15v-59.9L323,287.5"/>
		<path class="st4" d="M395.5,322h20.1l-10-24.2 M390.5,335.2l-5.6,12.2h-16.2v-2.1l33.3-71.9h7.2l33.2,71.9v2.1h-16.1l-5.6-12.2
			H390.5z"/>
		<polyline class="st4" points="464.7,305.5 464.7,347.4 449.3,347.4 449.3,273.6 454.1,273.6 494.8,315.6 494.8,274 510.4,274 
			510.4,347.7 505.8,347.7 		"/>
		<polyline class="st4" points="538.7,305.5 538.7,347.4 523.2,347.4 523.2,273.6 528.1,273.6 568.8,315.6 568.8,274 584.3,274 
			584.3,347.7 579.7,347.7 		"/>
		<path class="st4" d="M648,322h20.1l-10-24.2 M642.9,335.2l-5.6,12.2h-16.1v-2.1l33.3-71.9h7.2l33.1,71.9v2.1h-16l-5.7-12.2H642.9z
			"/>
	</g>
</g>
</svg>
