<svg width="508.148486328125px" height="122px" xmlns="http://www.w3.org/2000/svg" viewBox="-4.074243164062494 14 508.148486328125 122" style="background: rgba(0, 0, 0, 0);" preserveAspectRatio="xMidYMid"><defs><linearGradient id="editing-outline-gradient" x1="-0.41354545764260087" x2="1.4135454576426008" y1="0.09326335692419985" y2="0.9067366430758002"><stop offset="0" stop-color="#ee4208"></stop><stop offset="1" stop-color="#4139ff"></stop></linearGradient><filter id="editing-outline" x="-100%" y="-100%" width="300%" height="300%"><feMorphology in="SourceGraphic" operator="dilate" radius="1" result="outline"></feMorphology><feComposite operator="out" in="outline" in2="SourceAlpha"></feComposite></filter></defs><g filter="url(#editing-outline)"><g transform="translate(71.32580423355103, 97.46500015258789)"><path d="M6.21-31.17L6.21-31.17L6.21-31.17Q4.03-32.83 4.03-36.38L4.03-36.38L4.03-36.38Q4.03-39.94 6.37-41.79L6.37-41.79L6.37-41.79Q8.70-43.65 12.74-43.65L12.74-43.65L12.74-43.65Q15.30-43.65 21.38-42.75L21.38-42.75L25.73-42.11L25.73-42.11Q27.90-41.86 30.18-41.86L30.18-41.86L30.18-41.86Q32.45-41.86 33.98-42.82L33.98-42.82L33.98-42.82Q36.29-40.77 36.29-37.82L36.29-37.82L36.29-37.82Q36.29-34.88 33.66-32.77L33.66-32.77L33.66-32.77Q30.98-30.53 27.52-30.53L27.52-30.53L27.52-30.53Q25.86-30.53 23.17-30.98L23.17-30.98L23.17-30.98Q20.03-21.12 20.03-14.27L20.03-14.27L20.03-14.27Q20.03-7.42 23.49-3.84L23.49-3.84L23.49-3.84Q21.89-0.96 19.52 0.16L19.52 0.16L19.52 0.16Q17.15 1.28 13.60 1.28L13.60 1.28L13.60 1.28Q10.05 1.28 7.84-0.67L7.84-0.67L7.84-0.67Q5.63-2.62 5.63-6.66L5.63-6.66L5.63-6.66Q5.63-11.33 8.19-19.01L8.19-19.01L8.19-19.01Q10.75-26.62 14.59-32.45L14.59-32.45L14.59-32.45Q12.74-32.64 10.82-32.64L10.82-32.64L10.82-32.64Q6.85-32.64 6.21-31.17ZM61.57-9.86L61.57-9.86L61.57-9.86Q62.78-8.32 62.78-5.82L62.78-5.82L62.78-5.82Q62.78-2.37 60.22-0.54L60.22-0.54L60.22-0.54Q57.66 1.28 53.63 1.28L53.63 1.28L53.63 1.28Q51.33 1.28 47.81 0.77L47.81 0.77L47.81 0.77Q40.90-0.32 38.78-0.32L38.78-0.32L38.78-0.32Q36.67-0.32 35.84-0.22L35.84-0.22L35.84-0.22Q35.01-0.13 33.66 0L33.66 0L41.54-42.24L69.12-42.24L69.12-42.24Q69.12-38.34 67.23-36.29L67.23-36.29L67.23-36.29Q65.34-34.24 61.63-34.24L61.63-34.24L61.63-34.24Q57.92-34.24 54.14-35.97L54.14-35.97L52.16-24.77L63.55-24.77L63.55-24.77Q63.55-21.38 61.89-19.49L61.89-19.49L61.89-19.49Q60.22-17.60 57.44-17.60L57.44-17.60L57.44-17.60Q54.66-17.60 52.93-18.24L52.93-18.24L52.93-18.24Q51.20-18.88 51.01-19.07L51.01-19.07L48.70-6.98L48.70-6.98Q50.24-6.78 53.12-6.78L53.12-6.78L53.12-6.78Q58.05-6.78 61.57-9.86ZM102.08-13.25L102.08-13.25L102.08-13.25Q103.74-12.03 103.74-9.44L103.74-9.44L103.74-9.44Q103.74-6.85 102.62-5.02L102.62-5.02L102.62-5.02Q101.50-3.20 99.33-1.79L99.33-1.79L99.33-1.79Q94.66 1.22 86.50 1.22L86.50 1.22L86.50 1.22Q78.34 1.22 73.89-3.04L73.89-3.04L73.89-3.04Q69.44-7.30 69.44-14.85L69.44-14.85L69.44-14.85Q69.44-25.54 75.01-33.66L75.01-33.66L75.01-33.66Q79.23-39.68 86.78-42.24L86.78-42.24L86.78-42.24Q90.69-43.52 94.53-43.52L94.53-43.52L94.53-43.52Q98.37-43.52 100.74-43.01L100.74-43.01L100.74-43.01Q103.10-42.50 104.90-41.47L104.90-41.47L104.90-41.47Q108.80-39.23 108.80-35.65L108.80-35.65L108.80-35.65Q108.80-32.38 105.73-29.95L105.73-29.95L105.73-29.95Q102.91-27.78 100.61-27.78L100.61-27.78L100.61-27.78Q98.30-27.78 97.34-28.10L97.34-28.10L97.34-28.10Q97.60-30.40 97.60-31.90L97.60-31.90L97.60-31.90Q97.60-33.41 97.54-34.50L97.54-34.50L97.54-34.50Q97.47-35.58 97.15-36.61L97.15-36.61L97.15-36.61Q96.51-38.98 94.56-38.98L94.56-38.98L94.56-38.98Q92.61-38.98 90.66-37.15L90.66-37.15L90.66-37.15Q88.70-35.33 87.04-32.26L87.04-32.26L87.04-32.26Q83.26-25.28 83.26-17.02L83.26-17.02L83.26-17.02Q83.26-13.06 85.50-10.78L85.50-10.78L85.50-10.78Q87.74-8.51 92.54-8.51L92.54-8.51L92.54-8.51Q96.13-8.51 99.52-10.88L99.52-10.88L99.52-10.88Q100.99-11.90 102.08-13.25ZM132.93-4.80L132.93-4.80L132.93-4.80Q132.93-9.28 134.72-18.24L134.72-18.24L125.25-18.24L121.73 0L108.35 0L116.48-42.24L129.98-42.24L126.27-23.36L135.74-23.36L139.26-42.24L152.77-42.24L152.77-42.24Q151.87-37.50 150.72-32.19L150.72-32.19L148.54-21.76L148.54-21.76Q146.11-9.60 146.11-4.29L146.11-4.29L146.11-4.29Q146.11-2.11 146.82-0.90L146.82-0.90L146.82-0.90Q143.62 1.28 139.87 1.28L139.87 1.28L139.87 1.28Q136.13 1.28 134.53-0.51L134.53-0.51L134.53-0.51Q132.93-2.30 132.93-4.80ZM187.71-13.25L187.71-13.25L187.71-13.25Q189.38-12.03 189.38-9.44L189.38-9.44L189.38-9.44Q189.38-6.85 188.26-5.02L188.26-5.02L188.26-5.02Q187.14-3.20 184.96-1.79L184.96-1.79L184.96-1.79Q180.29 1.22 172.13 1.22L172.13 1.22L172.13 1.22Q163.97 1.22 159.52-3.04L159.52-3.04L159.52-3.04Q155.07-7.30 155.07-14.85L155.07-14.85L155.07-14.85Q155.07-25.54 160.64-33.66L160.64-33.66L160.64-33.66Q164.86-39.68 172.42-42.24L172.42-42.24L172.42-42.24Q176.32-43.52 180.16-43.52L180.16-43.52L180.16-43.52Q184-43.52 186.37-43.01L186.37-43.01L186.37-43.01Q188.74-42.50 190.53-41.47L190.53-41.47L190.53-41.47Q194.43-39.23 194.43-35.65L194.43-35.65L194.43-35.65Q194.43-32.38 191.36-29.95L191.36-29.95L191.36-29.95Q188.54-27.78 186.24-27.78L186.24-27.78L186.24-27.78Q183.94-27.78 182.98-28.10L182.98-28.10L182.98-28.10Q183.23-30.40 183.23-31.90L183.23-31.90L183.23-31.90Q183.23-33.41 183.17-34.50L183.17-34.50L183.17-34.50Q183.10-35.58 182.78-36.61L182.78-36.61L182.78-36.61Q182.14-38.98 180.19-38.98L180.19-38.98L180.19-38.98Q178.24-38.98 176.29-37.15L176.29-37.15L176.29-37.15Q174.34-35.33 172.67-32.26L172.67-32.26L172.67-32.26Q168.90-25.28 168.90-17.02L168.90-17.02L168.90-17.02Q168.90-13.06 171.14-10.78L171.14-10.78L171.14-10.78Q173.38-8.51 178.18-8.51L178.18-8.51L178.18-8.51Q181.76-8.51 185.15-10.88L185.15-10.88L185.15-10.88Q186.62-11.90 187.71-13.25ZM207.81 0L194.11 0L201.92-42.05L201.92-42.05Q208.26-42.75 217.50-42.75L217.50-42.75L217.50-42.75Q226.75-42.75 231.04-40.06L231.04-40.06L231.04-40.06Q235.33-37.38 235.33-31.97L235.33-31.97L235.33-31.97Q235.33-26.56 232.54-23.17L232.54-23.17L232.54-23.17Q229.76-19.78 224.96-18.69L224.96-18.69L224.96-18.69Q226.05-13.38 228.54-9.09L228.54-9.09L228.54-9.09Q230.85-5.06 233.54-3.78L233.54-3.78L233.54-3.78Q232.58-1.09 230.62 0.10L230.62 0.10L230.62 0.10Q228.67 1.28 225.89 1.28L225.89 1.28L225.89 1.28Q223.10 1.28 220.93-0.35L220.93-0.35L220.93-0.35Q218.75-1.98 217.02-4.99L217.02-4.99L217.02-4.99Q213.38-11.52 212.99-21.82L212.99-21.82L213.44-21.82L213.44-21.82Q218.18-21.95 220.54-24.42L220.54-24.42L220.54-24.42Q222.91-26.88 222.91-32.06L222.91-32.06L222.91-32.06Q222.91-38.53 217.47-38.78L217.47-38.78L216.06-38.78L216.06-38.78Q215.49-38.78 215.17-38.72L215.17-38.72L207.81 0ZM266.37 1.28L266.37 1.28L266.37 1.28Q258.18 1.28 257.41-10.37L257.41-10.37L246.40-10.37L246.40-10.37Q245.12-7.42 244.22-4.86L244.22-4.86L242.56 0L233.60 0L253.76-42.24L267.52-42.24L270.21-11.14L270.21-11.14Q270.85-4.42 273.41-2.43L273.41-2.43L273.41-2.43Q271.55 1.28 266.37 1.28ZM251.90-23.17L248.38-15.04L257.22-15.04L256.45-31.49L256.45-33.22L251.90-23.17ZM309.82-13.25L309.82-13.25L309.82-13.25Q311.49-12.03 311.49-9.44L311.49-9.44L311.49-9.44Q311.49-6.85 310.37-5.02L310.37-5.02L310.37-5.02Q309.25-3.20 307.07-1.79L307.07-1.79L307.07-1.79Q302.40 1.22 294.24 1.22L294.24 1.22L294.24 1.22Q286.08 1.22 281.63-3.04L281.63-3.04L281.63-3.04Q277.18-7.30 277.18-14.85L277.18-14.85L277.18-14.85Q277.18-25.54 282.75-33.66L282.75-33.66L282.75-33.66Q286.98-39.68 294.53-42.24L294.53-42.24L294.53-42.24Q298.43-43.52 302.27-43.52L302.27-43.52L302.27-43.52Q306.11-43.52 308.48-43.01L308.48-43.01L308.48-43.01Q310.85-42.50 312.64-41.47L312.64-41.47L312.64-41.47Q316.54-39.23 316.54-35.65L316.54-35.65L316.54-35.65Q316.54-32.38 313.47-29.95L313.47-29.95L313.47-29.95Q310.66-27.78 308.35-27.78L308.35-27.78L308.35-27.78Q306.05-27.78 305.09-28.10L305.09-28.10L305.09-28.10Q305.34-30.40 305.34-31.90L305.34-31.90L305.34-31.90Q305.34-33.41 305.28-34.50L305.28-34.50L305.28-34.50Q305.22-35.58 304.90-36.61L304.90-36.61L304.90-36.61Q304.26-38.98 302.30-38.98L302.30-38.98L302.30-38.98Q300.35-38.98 298.40-37.15L298.40-37.15L298.40-37.15Q296.45-35.33 294.78-32.26L294.78-32.26L294.78-32.26Q291.01-25.28 291.01-17.02L291.01-17.02L291.01-17.02Q291.01-13.06 293.25-10.78L293.25-10.78L293.25-10.78Q295.49-8.51 300.29-8.51L300.29-8.51L300.29-8.51Q303.87-8.51 307.26-10.88L307.26-10.88L307.26-10.88Q308.74-11.90 309.82-13.25ZM322.88 0L326.59-18.82L326.59-18.82Q324.74-36.16 318.21-39.87L318.21-39.87L318.21-39.87Q319.55-41.54 321.73-42.46L321.73-42.46L321.73-42.46Q323.90-43.39 326.53-43.39L326.53-43.39L326.53-43.39Q329.15-43.39 331.14-42.46L331.14-42.46L331.14-42.46Q333.12-41.54 334.40-39.55L334.40-39.55L334.40-39.55Q336.83-35.78 336.83-26.75L336.83-26.75L336.83-22.14L336.83-22.14Q340.67-33.41 344.51-38.27L344.51-38.27L344.51-38.27Q348.42-43.26 353.28-43.26L353.28-43.26L353.28-43.26Q355.20-43.26 356.48-42.27L356.48-42.27L356.48-42.27Q357.76-41.28 358.40-39.81L358.40-39.81L358.40-39.81Q353.47-37.63 348.74-31.36L348.74-31.36L348.74-31.36Q344.00-25.09 340.93-16.32L340.93-16.32L337.15 0L322.88 0Z" fill="url(#editing-outline-gradient)"></path></g></g><style>text {
  font-size: 64px;
  font-family: Arial Black;
  dominant-baseline: central;
  text-anchor: middle;
}</style></svg>